<?xml version="1.0" encoding="utf-8"?>
<!-- Generator: Adobe Illustrator 19.2.0, SVG Export Plug-In . SVG Version: 6.00 Build 0)  -->
<svg version="1.1" xmlns="http://www.w3.org/2000/svg" xmlns:xlink="http://www.w3.org/1999/xlink" x="0px" y="0px"
	 viewBox="0 0 1920 1080" style="enable-background:new 0 0 1920 1080;" xml:space="preserve">
<style type="text/css">
	.st0{fill:#236CAF;}
	.st1{fill:#333333;}
	.st2{fill:#E6E6E6;}
	.st3{fill:#30333A;}
	.st4{fill:#F8C09D;}
	.st5{fill:#4D4D4D;}
	.st6{fill:#1C1C28;}
	.st7{fill:#1A1A1A;}
	.st8{fill:#443833;}
	.st9{fill:#F2F2F2;}
	.st10{fill:#CCCCCC;}
	.st11{fill:#C69C6D;}
	.st12{fill:#009245;}
	.st13{fill:#A67C52;}
	.st14{fill:#39B54A;}
	.st15{fill:#006837;}
	.st16{fill:#703B21;}
	.st17{fill:#FFFFFF;}
	.st18{fill:#F6AE8D;}
	.st19{fill:#EF937E;}
	.st20{fill:none;stroke:#EF937E;stroke-width:4;stroke-linecap:round;stroke-miterlimit:10;}
</style>
<g id="Chair">
	<g>
		<path class="st0" d="M880.3,669.8H699c-10.9,0-19.7-8.8-19.7-19.7v-79.5c0-10.9,8.8-19.7,19.7-19.7h181.3
			c10.9,0,19.7,8.8,19.7,19.7v79.5C900,661,891.2,669.8,880.3,669.8z"/>
		<path class="st0" d="M880.3,523.4H699c-10.9,0-19.7-8.8-19.7-19.7v-79.5c0-10.9,8.8-19.7,19.7-19.7h181.3
			c10.9,0,19.7,8.8,19.7,19.7v79.5C900,514.6,891.2,523.4,880.3,523.4z"/>
		<path class="st1" d="M801.6,697.8h-23.9c-6.5,0-11.8-5.3-11.8-11.8v-5.4h47.4v5.4C813.4,692.5,808.1,697.8,801.6,697.8z"/>
		<path class="st1" d="M872.5,682.3H706.8c-3.5,0-6.3-2.8-6.3-6.3l0,0c0-3.5,2.8-6.3,6.3-6.3h165.7c3.5,0,6.3,2.8,6.3,6.3l0,0
			C878.8,679.5,876,682.3,872.5,682.3z"/>
		<rect x="778.1" y="697.8" class="st2" width="23.1" height="73.7"/>
		<path class="st1" d="M804.8,771.5h-30.3c-4.7,0-8.6-3.8-8.6-8.6l0,0c0-4.7,3.8-8.6,8.6-8.6h30.3c4.7,0,8.6,3.8,8.6,8.6l0,0
			C813.4,767.6,809.5,771.5,804.8,771.5z"/>
		<path class="st2" d="M707.1,836.1h19.2l9.8-18.1c2.5-4.6,6-8.6,10.2-11.7l47.9-34.8h-28.3l-36,29.4c-3.3,2.7-6.2,6-8.3,9.8
			L707.1,836.1z"/>
		<path class="st2" d="M871.9,836.1h-19.2l-9.8-18.1c-2.5-4.6-6-8.6-10.2-11.7l-47.9-34.8H813l36,29.4c3.3,2.7,6.2,6,8.3,9.8
			L871.9,836.1z"/>
		<circle class="st1" cx="717.1" cy="836.1" r="15.2"/>
		<circle class="st1" cx="862.6" cy="836.1" r="15.2"/>
		<rect x="779.6" y="771.5" class="st2" width="19.1" height="63"/>
		<circle class="st1" cx="789.6" cy="836.1" r="15.2"/>
	</g>
</g>
<g id="Body">
	<path class="st3" d="M931.2,670.1H794.8v-42.8l145.7,1l7.3,13.1l2,7.2C949.8,662.1,944.8,670.1,931.2,670.1z"/>
	<path class="st4" d="M899.5,610.5l-130.8-13.7l-8.8,28.6c-3.3,10.9,2.7,22.4,13.6,25.7l118.5,7.7l41.7,156.1h26.5l-20-158.9
		c-1.6-22.7,1.1-34.8-25.9-43.4L899.5,610.5z"/>
	<path class="st4" d="M844.7,613l-108.4-16.2l-1.1,28.6c-0.9,14.1,35.6,32.9,46.5,36.3l55.4-0.3l26.3,153.6h26.5l-4.5-156.4
		c-1.6-22.7,1.1-34.8-25.9-43.4L844.7,613z"/>
	<path class="st3" d="M898.4,598.3h-172l24.5-66.9L735,421c0-17.5,10.8-31.7,24.2-31.7h103.5c13.4,0,24.2,14.2,24.2,31.7
		l-14.2,106.3L898.4,598.3z"/>
	<path class="st5" d="M796.7,480.5h-19.8c-3.7,0-6.7-3-6.7-6.7v-4.3h33.3v4.3C803.4,477.5,800.4,480.5,796.7,480.5z"/>
	<polygon class="st6" points="820.9,566.4 816.1,603 825.4,603 	"/>
	<path class="st6" d="M743.5,480.1l7.4,51.3l-24.5,76.9L903,611l-30.2-83.6l5.6-42c-14.5,4.9-49.5,10.3-81,10
		c-40.6-0.4-43.1-54.1-43.1-54.1L743.5,480.1z"/>
	<path class="st3" d="M806.6,661.5c0-13.5,26.2-24.3,91.9-24.3c40.6,0,47.9,6.8,51.4,12c0.5-19-31.5-50.9-66.8-50.9c-9,0-15,0-15,0
		H726.5c0,0-0.4,71.7,57.3,71.7c7.6,0,15.2,0,22.8,0C806.6,667,806.6,668.2,806.6,661.5z"/>
	<path class="st6" d="M883,598.3c-9,0-15,0-15,0H726.5c0,0,0,5.1,1,12.7h194.9C911.1,603.5,897.3,598.3,883,598.3z"/>
	<path class="st4" d="M960.5,814.6l12.2,55.1c0,0-1.2,18.3-15.5,18.3s-17.1-13.9-19.5-26.3c-2.4-12.3-3-47.1-3-47.1H960.5z"/>
	<path class="st7" d="M929,827.5c0.2,1.5-3.9,43.4-1.6,43.4c3.6,0,7.3,0,7.3,0s-4.3-38.6-2.8-43.4S929,827.5,929,827.5z"/>
	<path class="st8" d="M970.1,858.2c-4.8-3.3-7-3.1-14.2-1.8c-7.2,1.3-12.7,5.3-16.5,7.7c-3.8,2.4-1.8-13.9-2.2-27.5
		c-0.4-13.5-2.6-22-2.6-22l-1.3-4.7c0,0-6,3.3-4.9,13.2c1.2,10,4,37.6,3.6,49.4c-0.4,11.9,17.1,17.8,32.2,18.2
		c15.1,0.4,14.4-3.9,13.6-11.7C977.1,871.7,974.9,861.5,970.1,858.2z"/>
	<path class="st4" d="M890.1,814.6l12.2,55.1c0,0-1.2,18.3-15.5,18.3s-17.1-13.9-19.5-26.3c-2.4-12.3-3-47.1-3-47.1H890.1z"/>
	<path class="st7" d="M858.6,827.5c0.2,1.5-3.9,43.4-1.6,43.4c3.6,0,7.3,0,7.3,0s-4.3-38.6-2.8-43.4
		C862.9,822.7,858.6,827.5,858.6,827.5z"/>
	<path class="st8" d="M899.7,858.2c-4.8-3.3-7-3.1-14.2-1.8s-12.7,5.3-16.5,7.7c-3.8,2.4-1.8-13.9-2.2-27.5c-0.4-13.5-2.6-22-2.6-22
		l-1.7-4.7c0,0-5.7,3.3-4.5,13.2s4,37.6,3.6,49.4c-0.4,11.9,17.1,17.8,32.2,18.2c15.1,0.4,14.4-3.9,13.6-11.7
		C906.7,871.7,904.5,861.5,899.7,858.2z"/>
	<path class="st3" d="M721,398c0,0,12-8.1,40.4-8.7C779.5,389,741,417,741,417L721,398z"/>
	<path class="st3" d="M852.6,389.3c0,0,45.8-2.9,53.3,13c7.1,15.1-16.6,23.1-16.6,23.1L852.6,389.3z"/>
</g>
<g id="Table">
	<path class="st9" d="M1428.9,583H516.7c-9.1,0-16.5-7.4-16.5-16.5l0,0c0-9.1,7.4-16.5,16.5-16.5h912.2c9.1,0,16.5,7.4,16.5,16.5
		l0,0C1445.3,575.7,1438,583,1428.9,583z"/>
	<path class="st9" d="M1393.8,874h-336.4c-3.8,0-6.8-3.1-6.8-6.8V597.8h350.1v269.4C1400.6,870.9,1397.5,874,1393.8,874z"/>
	<path class="st9" d="M584.6,875h-37.3c-3.8,0-6.8-3.1-6.8-6.8V597.8h51v270.4C591.5,871.9,588.4,875,584.6,875z"/>
	<rect x="1050.5" y="583" class="st2" width="350.1" height="65.6"/>
	<rect x="540.5" y="583" class="st10" width="860.1" height="14.8"/>
</g>
<g id="Cactus">
	<path class="st11" d="M1380.1,549.4h-42c-3,0-5.6-2.2-6.1-5.3l-8.2-56.4c-0.5-3.7,2.3-7,6.1-7h58.5c3.7,0,6.6,3.3,6.1,7l-8.2,56.4
		C1385.7,547.1,1383.1,549.4,1380.1,549.4z"/>
	<path class="st12" d="M1374.7,480.7h-30.7v-44c0-8.5,6.9-15.3,15.3-15.3l0,0c8.5,0,15.3,6.9,15.3,15.3V480.7z"/>
	<path class="st12" d="M1396.7,465.7h-14.7V442c0-4.1,3.3-7.3,7.3-7.3l0,0c4.1,0,7.3,3.3,7.3,7.3V465.7z"/>
	<rect x="1367.4" y="452.2" class="st12" width="29.3" height="13.5"/>
	<path class="st11" d="M1394.6,503h-71.1c-3.6,0-6.5-2.9-6.5-6.5v-9.3c0-3.6,2.9-6.5,6.5-6.5h71.1c3.6,0,6.5,2.9,6.5,6.5v9.3
		C1401.1,500.1,1398.2,503,1394.6,503z"/>
	<polygon class="st13" points="1327,509.9 1391.2,509.8 1392.2,503 1326,503 	"/>
	<path class="st14" d="M1352.1,438.7L1352.1,438.7c-0.7,0-1.2-0.6-1.2-1.2v-3.5c0-0.7,0.6-1.2,1.2-1.2l0,0c0.7,0,1.2,0.6,1.2,1.2
		v3.5C1353.3,438.1,1352.8,438.7,1352.1,438.7z"/>
	<path class="st14" d="M1360.1,438.7L1360.1,438.7c-0.7,0-1.2-0.6-1.2-1.2v-3.5c0-0.7,0.6-1.2,1.2-1.2l0,0c0.7,0,1.2,0.6,1.2,1.2
		v3.5C1361.3,438.1,1360.8,438.7,1360.1,438.7z"/>
	<path class="st14" d="M1368.1,438.7L1368.1,438.7c-0.7,0-1.2-0.6-1.2-1.2v-3.5c0-0.7,0.6-1.2,1.2-1.2l0,0c0.7,0,1.2,0.6,1.2,1.2
		v3.5C1369.3,438.1,1368.8,438.7,1368.1,438.7z"/>
	<path class="st14" d="M1356.4,447.2L1356.4,447.2c-0.7,0-1.2-0.6-1.2-1.2v-3.5c0-0.7,0.6-1.2,1.2-1.2l0,0c0.7,0,1.2,0.6,1.2,1.2
		v3.5C1357.7,446.7,1357.1,447.2,1356.4,447.2z"/>
	<path class="st14" d="M1364.4,447.2L1364.4,447.2c-0.7,0-1.2-0.6-1.2-1.2v-3.5c0-0.7,0.6-1.2,1.2-1.2l0,0c0.7,0,1.2,0.6,1.2,1.2
		v3.5C1365.7,446.7,1365.1,447.2,1364.4,447.2z"/>
	<path class="st14" d="M1356.4,466.5L1356.4,466.5c-0.7,0-1.2-0.6-1.2-1.2v-3.5c0-0.7,0.6-1.2,1.2-1.2l0,0c0.7,0,1.2,0.6,1.2,1.2
		v3.5C1357.7,466,1357.1,466.5,1356.4,466.5z"/>
	<path class="st14" d="M1364.4,466.5L1364.4,466.5c-0.7,0-1.2-0.6-1.2-1.2v-3.5c0-0.7,0.6-1.2,1.2-1.2l0,0c0.7,0,1.2,0.6,1.2,1.2
		v3.5C1365.7,466,1365.1,466.5,1364.4,466.5z"/>
	<path class="st14" d="M1352.1,456.5L1352.1,456.5c-0.7,0-1.2-0.6-1.2-1.2v-3.5c0-0.7,0.6-1.2,1.2-1.2l0,0c0.7,0,1.2,0.6,1.2,1.2
		v3.5C1353.3,455.9,1352.8,456.5,1352.1,456.5z"/>
	<path class="st14" d="M1360.1,456.5L1360.1,456.5c-0.7,0-1.2-0.6-1.2-1.2v-3.5c0-0.7,0.6-1.2,1.2-1.2l0,0c0.7,0,1.2,0.6,1.2,1.2
		v3.5C1361.3,455.9,1360.8,456.5,1360.1,456.5z"/>
	<path class="st14" d="M1368.1,456.5L1368.1,456.5c-0.7,0-1.2-0.6-1.2-1.2v-3.5c0-0.7,0.6-1.2,1.2-1.2l0,0c0.7,0,1.2,0.6,1.2,1.2
		v3.5C1369.3,455.9,1368.8,456.5,1368.1,456.5z"/>
	<path class="st14" d="M1352.1,476.5L1352.1,476.5c-0.7,0-1.2-0.6-1.2-1.2v-3.5c0-0.7,0.6-1.2,1.2-1.2l0,0c0.7,0,1.2,0.6,1.2,1.2
		v3.5C1353.3,476,1352.8,476.5,1352.1,476.5z"/>
	<path class="st14" d="M1360.1,476.5L1360.1,476.5c-0.7,0-1.2-0.6-1.2-1.2v-3.5c0-0.7,0.6-1.2,1.2-1.2l0,0c0.7,0,1.2,0.6,1.2,1.2
		v3.5C1361.3,476,1360.8,476.5,1360.1,476.5z"/>
	<path class="st14" d="M1368.1,476.5L1368.1,476.5c-0.7,0-1.2-0.6-1.2-1.2v-3.5c0-0.7,0.6-1.2,1.2-1.2l0,0c0.7,0,1.2,0.6,1.2,1.2
		v3.5C1369.3,476,1368.8,476.5,1368.1,476.5z"/>
	<rect x="1374.7" y="452.2" class="st15" width="4.2" height="13.5"/>
	<path class="st14" d="M1385.4,448.2L1385.4,448.2c-0.7,0-1.2-0.6-1.2-1.2v-3.5c0-0.7,0.6-1.2,1.2-1.2l0,0c0.7,0,1.2,0.6,1.2,1.2
		v3.5C1386.7,447.6,1386.1,448.2,1385.4,448.2z"/>
	<path class="st14" d="M1389.4,455.2L1389.4,455.2c-0.7,0-1.2-0.6-1.2-1.2v-3.5c0-0.7,0.6-1.2,1.2-1.2l0,0c0.7,0,1.2,0.6,1.2,1.2
		v3.5C1390.7,454.6,1390.1,455.2,1389.4,455.2z"/>
	<path class="st14" d="M1393.4,448.2L1393.4,448.2c-0.7,0-1.2-0.6-1.2-1.2v-3.5c0-0.7,0.6-1.2,1.2-1.2l0,0c0.7,0,1.2,0.6,1.2,1.2
		v3.5C1394.7,447.6,1394.1,448.2,1393.4,448.2z"/>
	<path class="st14" d="M1385.4,463.2L1385.4,463.2c-0.7,0-1.2-0.6-1.2-1.2v-3.5c0-0.7,0.6-1.2,1.2-1.2l0,0c0.7,0,1.2,0.6,1.2,1.2
		v3.5C1386.7,462.6,1386.1,463.2,1385.4,463.2z"/>
	<path class="st14" d="M1393.4,463.2L1393.4,463.2c-0.7,0-1.2-0.6-1.2-1.2v-3.5c0-0.7,0.6-1.2,1.2-1.2l0,0c0.7,0,1.2,0.6,1.2,1.2
		v3.5C1394.7,462.6,1394.1,463.2,1393.4,463.2z"/>
</g>
<g id="Coffee">
</g>
<g id="Head">
	<polygon class="st4" points="795.2,389.3 800,432.8 843.1,432.8 846.4,389.3 	"/>
	<path class="st16" d="M727.8,264.5c-3.1,28.6-3.9,47.7,0.4,81.8c3.1,24.4,4.4,31,4.4,31h171.2c0,0,19.4-93.1-2.3-168.8l-155.6-2
		C745.9,206.5,731.9,227,727.8,264.5z"/>
	<path class="st2" d="M800,423.3c0,0,12.9,9.5,27.8,9.5s17.7-9.5,17.7-9.5L834,487L800,423.3z"/>
	<path class="st4" d="M845.4,383.9c0,13.4-10.9,24.5-24.3,24.5h0h-0.2c-13.4,0-24.5-11.1-24.5-24.5v-24.6h49V383.9z"/>
	<polygon class="st17" points="846.4,389.3 834,487 865.4,423.8 857.3,416 867.5,405.4 	"/>
	<polygon class="st17" points="795.2,389.3 834,487 776.3,423.8 784.4,416 774.1,405.4 	"/>
	<path class="st18" d="M796.4,378.6c8.4,4.3,16.6,8.2,23.9,8.2c7.6,0,16.4-1.4,25.1-5.8v-16h-49V378.6z"/>
	<path class="st4" d="M822.9,376.4c-28.8,0-66-41.2-66-69.1v-94.6h139.4v94.6C896.3,336.5,871.1,376.4,822.9,376.4z"/>
	<polygon class="st16" points="765.4,277.5 753,277.5 753,260 766.2,258 	"/>
	<path class="st16" d="M858.8,233.3c0,0-33,20.6-58.8,26c-27.6,5.8-43.7,0-43.7,0s-33.5-18.4-10.4-52.8
		c35.4-52.8,97.9-36.1,112.9-23.1c0,0,25.4-8,38,14.5c14.9,26.7-0.1,66.4-0.1,66.4s-7.7-3.4-18.6-11
		C866.5,245.3,858.8,233.3,858.8,233.3z"/>
	<circle class="st4" cx="754.1" cy="294.5" r="18.3"/>
	<path class="st19" d="M750.5,297.1c0-3.6,2.9-6.5,6.5-6.5c1,0,1.9,0.2,2.8,0.6c-1.1-1.9-3.2-3.2-5.6-3.2c-3.6,0-6.5,2.9-6.5,6.5
		c0,2.6,1.5,4.8,3.7,5.9C750.8,299.4,750.5,298.3,750.5,297.1z"/>
	<circle class="st4" cx="896.7" cy="294.5" r="18.3"/>
	<path class="st19" d="M900.4,297.1c0-3.6-2.9-6.5-6.5-6.5c-1,0-1.9,0.2-2.8,0.6c1.1-1.9,3.2-3.2,5.6-3.2c3.6,0,6.5,2.9,6.5,6.5
		c0,2.6-1.5,4.8-3.7,5.9C900.1,299.4,900.4,298.3,900.4,297.1z"/>
</g>
<g id="Right_arm">
	<path class="st3" d="M913.8,549.2L913.8,549.2c-10.1,1.5-19.5-5.4-21-15.4L874.3,413c-1.5-10.1-2.4-23.6,8.1-22.4
		c22.6,2.5,26.3,12.4,29.5,27.1l17.4,110.4C930.8,538.2,923.9,547.6,913.8,549.2z"/>
	<path class="st3" d="M850.8,537.5L850.8,537.5c-1.7-10,5-19.6,15-21.3l102.3-17.6l6.3,36.4l-102.3,17.6
		C862.1,554.3,852.6,547.6,850.8,537.5z"/>
	<path class="st4" d="M973.6,530.8c0,0,8.7,0,19.9,1.7c11.2,1.7,12.5,1.9,16,1.9s6.2-6.8-2.5-8.8c-8.7-2-6.8-3.6-2.3-3.4
		c4.6,0.2,9.5,1.4,14.5,6.1c5,4.7,11.6,6.5,12.2,1.2c0.6-5.4-4.4-7.3-4.4-7.3s6.2,1.1,6.4-3.5c0.2-4.6-5-9.1-8.1-11.2
		c0,0,1.9-5.2-4.4-6.8c-6.2-1.7-16.6-6.2-23.7-7.1s-27.6,13.7-27.6,13.7L973.6,530.8z"/>
</g>
<g id="Left_arm">
	<path class="st3" d="M752.6,552.2L752.6,552.2c-10.1,1.5-19.5-5.4-21-15.4L713.1,416c-1.5-10.1,5.4-19.5,15.4-21l0,0
		c10.1-1.5,19.5,5.4,21,15.4l18.5,120.7C769.6,541.2,762.7,550.6,752.6,552.2z"/>
	<path class="st4" d="M857.3,530.8c0,0,8.7,0,19.9,1.7c11.2,1.7,12.5,1.9,16,1.9c3.5,0,6.2-6.8-2.5-8.8c-8.7-2-6.8-3.6-2.3-3.4
		c4.6,0.2,9.5,1.4,14.5,6.1s11.6,6.5,12.2,1.2c0.6-5.4-4.4-7.3-4.4-7.3s6.2,1.1,6.4-3.5c0.2-4.6-5-9.1-8.1-11.2c0,0,1.9-5.2-4.4-6.8
		c-6.2-1.7-16.6-6.2-23.7-7.1c-7.1-0.8-27.6,13.7-27.6,13.7L857.3,530.8z"/>
	<path class="st3" d="M734.5,537.5L734.5,537.5c-1.7-10,5-19.6,15-21.3l102.3-17.6l6.3,36.4l-102.3,17.6
		C745.8,554.3,736.3,547.6,734.5,537.5z"/>
</g>
<g id="Computer">
	<path class="st17" d="M1028,550.2H840.8c-3.8,0-6.9-3.1-6.9-6.9v-0.9c0-3.8,3.1-6.9,6.9-6.9H1028c3.8,0,6.9,3.1,6.9,6.9v0.9
		C1034.8,547.2,1031.8,550.2,1028,550.2z"/>
	<path class="st2" d="M1184.2,550.2h-126.8c-3.8,0-6.9-3.1-6.9-6.9v-0.8c0-3.8,3.1-6.9,6.9-6.9h126.8c3.8,0,6.9,3.1,6.9,6.9v0.8
		C1191.1,547.1,1188,550.2,1184.2,550.2z"/>
	<path class="st9" d="M1267.1,503.2H974.6c-4.5,0-8.1-3.6-8.1-8.1V317c0-4.5,3.6-8.1,8.1-8.1h292.5c4.5,0,8.1,3.6,8.1,8.1v178.1
		C1275.1,499.6,1271.5,503.2,1267.1,503.2z"/>
	<path class="st17" d="M976,502.8V324.7c0-4.5,3.4-7.7,7.9-7.7h291.9c-0.2-4-3.7-8-8.1-8H975.2c-4.5,0-8.2,3.6-8.2,8v178.1
		c0,4.5,3.7,7.8,8.2,7.8h0.6C975.8,503,976,503,976,502.8z"/>
	<rect x="1086" y="466" class="st17" width="69.7" height="69.7"/>
</g>
<g id="Mouth">
	<path class="st20" d="M825.3,327.7c0,9.3,7.5,15.8,16.8,15.8l0,0c9.3,0,16.8-6.5,16.8-15.8"/>
</g>
<g id="Nose">
	<path class="st19" d="M838,303.2v13.8c0,0.6,0.8,1.1,1.4,1.1h8.2c2.2,0,3.4-2.6,2-4.3l-9.5-11.4C839.5,301.7,838,302.2,838,303.2z"
		/>
</g>
<g id="Eyes">
	<ellipse class="st1" cx="812.1" cy="285" rx="4.8" ry="8.5"/>
	<ellipse class="st1" cx="873.2" cy="285" rx="4.8" ry="8.5"/>
</g>
</svg>
