<?xml version="1.0" standalone="no"?><svg xmlns="http://www.w3.org/2000/svg" viewBox="0 0 1440 320"><path fill="#f3f4f5" fill-opacity="1" d="M0,128L34.3,117.3C68.6,107,137,85,206,112C274.3,139,343,213,411,218.7C480,224,549,160,617,122.7C685.7,85,754,75,823,80C891.4,85,960,107,1029,149.3C1097.1,192,1166,256,1234,261.3C1302.9,267,1371,213,1406,186.7L1440,160L1440,0L1405.7,0C1371.4,0,1303,0,1234,0C1165.7,0,1097,0,1029,0C960,0,891,0,823,0C754.3,0,686,0,617,0C548.6,0,480,0,411,0C342.9,0,274,0,206,0C137.1,0,69,0,34,0L0,0Z"></path></svg>