<?xml version="1.0" standalone="no"?><svg xmlns="http://www.w3.org/2000/svg" viewBox="0 0 1440 320"><path fill="#f3f4f5" fill-opacity="1" d="M0,224L40,240C80,256,160,288,240,266.7C320,245,400,171,480,149.3C560,128,640,160,720,181.3C800,203,880,213,960,181.3C1040,149,1120,75,1200,48C1280,21,1360,43,1400,53.3L1440,64L1440,320L1400,320C1360,320,1280,320,1200,320C1120,320,1040,320,960,320C880,320,800,320,720,320C640,320,560,320,480,320C400,320,320,320,240,320C160,320,80,320,40,320L0,320Z"></path></svg>