<?xml version="1.0" standalone="no"?><svg xmlns="http://www.w3.org/2000/svg" viewBox="0 0 1440 320"><path fill="#00000" fill-opacity="1" d="M0,128L34.3,117.3C68.6,107,137,85,206,112C274.3,139,343,213,411,218.7C480,224,549,160,617,122.7C685.7,85,754,75,823,80C891.4,85,960,107,1029,149.3C1097.1,192,1166,256,1234,261.3C1302.9,267,1371,213,1406,186.7L1440,160L1440,320L1405.7,320C1371.4,320,1303,320,1234,320C1165.7,320,1097,320,1029,320C960,320,891,320,823,320C754.3,320,686,320,617,320C548.6,320,480,320,411,320C342.9,320,274,320,206,320C137.1,320,69,320,34,320L0,320Z"></path></svg>